<svg xmlns="http://www.w3.org/2000/svg" viewBox="216 216 648 648">
  <defs>
    <style>
      .cls-1 {
        fill: #44ab48;
      }

      .cls-1, .cls-2, .cls-3 {
        stroke-width: 0px;
      }

      .cls-2 {
        fill: #074c72;
      }

      .cls-3 {
        fill: #fecb2a;
      }
    </style>
  </defs>
  <g id="CornerRight">
    <path class="cls-2" d="M864,252v311.91l-120.78-138.04.42-.42c3.52-3.52,3.52-9.21,0-12.73l-76.36-76.37c-3.52-3.51-9.22-3.51-12.73,0l-.43.43-138.03-120.78h311.91c19.88,0,36,16.12,36,36Z"/>
  </g>
  <g id="CornerBottom">
    <path class="cls-3" d="M680.43,488.66l183.57,160.63v178.71c0,19.88-16.12,36-36,36H292.87l374.67-374.67c3.52,3.27,9.03,3.19,12.46-.24l.43-.43Z"/>
  </g>
  <g id="CornerLeft">
    <path class="cls-1" d="M591.16,412.97l-375.16,375.17V252c0-19.88,16.11-36,36-36h178.71l160.62,183.57-.42.42c-3.52,3.52-3.52,9.22,0,12.73l.25.25Z"/>
  </g>
</svg>