<svg width="847" height="378" viewBox="0 0 847 378" fill="none" xmlns="http://www.w3.org/2000/svg">
<path d="M808 11C829.539 11 847 28.4609 847 50V277C847 298.539 829.539 316 808 316H623.363C617.86 286.124 594.338 263.67 566.153 263.67C537.969 263.67 514.446 286.124 508.943 316H263.653C258.15 286.124 234.628 263.67 206.443 263.67C178.259 263.67 154.736 286.124 149.233 316H39C17.4609 316 0 298.539 0 277V50C0 28.4609 17.4609 11 39 11H808Z" fill="#D1D8DA"/>
<rect x="460" y="41" width="114" height="121" fill="#9FD0C3"/>
<path d="M682.454 11H808C829.539 11 847 28.4609 847 50V277C847 298.539 829.539 316 808 316H631L682.454 11Z" fill="#BDC4C7"/>
<rect x="329" y="41" width="114" height="121" fill="#9FD0C3"/>
<rect x="198" y="41" width="114" height="121" fill="#9FD0C3"/>
<rect x="23" y="41" width="160" height="150" rx="15" fill="#9FD0C3"/>
<rect x="591" y="41" width="114" height="121" fill="#9FD0C3"/>
<rect x="722" y="41" width="114" height="121" fill="#85B1A5"/>
<rect x="684.5" y="239.5" width="77" height="64" stroke="#254852" stroke-width="5"/>
<rect x="215" width="106" height="17" rx="4" fill="#D1D8DA"/>
<rect x="609" width="106" height="17" rx="4" fill="#D1D8DA"/>
<ellipse cx="207.5" cy="325" rx="52.5" ry="53" fill="#222222"/>
<ellipse cx="567.5" cy="325" rx="52.5" ry="53" fill="#222222"/>
<ellipse cx="207.5" cy="325" rx="40.5" ry="39" fill="#5C5858"/>
<path d="M248 325C248 346.539 230.585 364 209.102 364C187.62 364 235 369.499 235 325C235 280.5 187.62 286 209.102 286C230.585 286 248 303.461 248 325Z" fill="#474545"/>
<ellipse cx="567.5" cy="325" rx="40.5" ry="39" fill="#5C5858"/>
<path d="M608.486 325.216C608.486 346.755 591.071 364.216 569.588 364.216C548.106 364.216 595.486 369.716 595.486 325.216C595.486 280.716 548.106 286.216 569.588 286.216C591.071 286.216 608.486 303.677 608.486 325.216Z" fill="#474545"/>
<rect x="184" y="162" width="660" height="10" fill="#254852"/>
<rect x="19" y="182" width="179" height="10" fill="#254852"/>
<rect x="312" y="52" width="17" height="110" fill="#254852"/>
<rect x="443" y="52" width="17" height="110" fill="#254852"/>
<rect x="574" y="52" width="17" height="110" fill="#254852"/>
<rect x="696" y="41" width="17" height="131" fill="#254852"/>
<rect x="705" y="52" width="17" height="110" fill="#254852"/>
<rect x="827" y="41" width="17" height="131" fill="#254852"/>
<rect x="181" y="41" width="17" height="150" fill="#254852"/>
<rect x="19" y="41" width="17" height="150" fill="#254852"/>
<rect x="19" y="41" width="817" height="11" fill="#254852"/>
<rect x="23" y="214" width="821" height="11" fill="#254852"/>
<path d="M153.239 52H181V182H123L153.239 52Z" fill="#44947F"/>
<path d="M676.5 52H698V162H657L676.5 52Z" fill="#306B5B"/>
<path d="M552.5 52H574V162H533L552.5 52Z" fill="#44947F"/>
<path d="M422.5 52H444V162H403L422.5 52Z" fill="#44947F"/>
<path d="M290.5 52H312V162H271L290.5 52Z" fill="#44947F"/>
<path d="M805.5 52H827V162H786L805.5 52Z" fill="#306B5B"/>
<path d="M684.207 0H711C713.209 0 715 1.79086 715 4V13C715 15.2091 713.209 17 711 17H681.441L684.207 0Z" fill="#BDC4C7"/>
</svg>
